<svg width="55.901" height="72.401" viewBox="0 0 55.901 72.401" xmlns="http://www.w3.org/2000/svg"><g id="svgGroup" stroke-linecap="round" fill-rule="evenodd" font-size="9pt" stroke="#b20600" stroke-width="0.25mm" fill="#b20600" style="stroke:#b20600;stroke-width:0.25mm;fill:#b20600"><path d="M 53.201 5.7 L 49.701 13.6 Q 45.501 11.3 41.151 9.8 A 27.36 27.36 0 0 0 35.051 8.48 A 34.225 34.225 0 0 0 31.501 8.3 A 20.13 20.13 0 0 0 24.014 9.671 A 18.919 18.919 0 0 0 20.301 11.65 A 20.295 20.295 0 0 0 14.976 17.068 A 27.457 27.457 0 0 0 12.551 21.5 A 31.614 31.614 0 0 0 10.505 28.231 Q 9.902 31.363 9.751 34.955 A 58.311 58.311 0 0 0 9.701 37.4 Q 9.701 44.709 11.669 50.163 A 26.036 26.036 0 0 0 12.301 51.75 A 24.18 24.18 0 0 0 15.233 56.797 A 19.102 19.102 0 0 0 19.501 60.9 A 17.93 17.93 0 0 0 29.31 64.086 A 21.993 21.993 0 0 0 30.101 64.1 A 22.762 22.762 0 0 0 35.698 63.437 A 18.835 18.835 0 0 0 40.051 61.75 A 40.361 40.361 0 0 0 43.053 59.967 Q 45.338 58.463 46.901 56.9 L 46.901 41.6 L 32.401 41.6 L 32.401 34.1 L 55.901 34.1 L 55.901 71.2 L 47.501 71.2 L 47.501 64.2 A 35.883 35.883 0 0 1 43.122 67.492 A 47.354 47.354 0 0 1 39.001 69.85 A 23.594 23.594 0 0 1 29.594 72.35 A 28.131 28.131 0 0 1 27.901 72.4 A 26.572 26.572 0 0 1 18.588 70.8 A 24.511 24.511 0 0 1 13.501 68.2 Q 7.201 64 3.601 56.25 A 37.529 37.529 0 0 1 0.693 46.68 A 51.837 51.837 0 0 1 0.001 38 A 56.301 56.301 0 0 1 0.836 28.083 A 42.572 42.572 0 0 1 3.801 18.25 A 32.73 32.73 0 0 1 9.585 9.302 A 29.455 29.455 0 0 1 14.751 4.85 Q 21.901 0 32.001 0 Q 38.501 0 43.601 1.6 Q 48.701 3.2 53.201 5.7 Z"/></g></svg>